<?xml version="1.0" standalone="no"?>
<!DOCTYPE svg PUBLIC "-//W3C//DTD SVG 20010904//EN"
 "http://www.w3.org/TR/2001/REC-SVG-20010904/DTD/svg10.dtd">
<svg version="1.0" xmlns="http://www.w3.org/2000/svg"
 width="100.000000pt" height="100.000000pt" viewBox="0 0 100.000000 100.000000"
 preserveAspectRatio="xMidYMid meet">
<metadata>
Created by potrace 1.14, written by Peter Selinger 2001-2017
</metadata>
<g transform="translate(0.000000,100.000000) scale(0.100000,-0.100000)"
fill="#000000" stroke="none">
<path d="M367 854 c-3 -4 0 -18 7 -33 8 -14 17 -40 20 -58 l7 -32 -33 9 c-18
5 -46 11 -62 14 -16 3 -53 11 -82 17 -30 7 -56 10 -58 8 -5 -5 -56 -225 -56
-240 0 -5 4 -9 9 -9 5 0 17 35 26 78 30 141 34 150 53 146 300 -67 418 -92
436 -93 4 -1 5 -20 2 -43 -4 -24 -8 -50 -9 -58 -2 -16 16 -21 19 -5 1 6 7 30
13 55 6 25 11 48 11 52 0 9 -50 24 -153 45 l-88 17 38 33 c21 18 32 33 25 33
-7 0 -25 -12 -40 -27 l-26 -26 -18 39 c-10 21 -18 49 -18 62 0 21 -10 28 -23
16z"/>
<path d="M190 711 c-4 -9 -8 -19 -8 -24 -1 -11 -22 -119 -29 -140 -4 -16 2
-18 63 -15 l67 3 1 48 c1 69 16 73 99 29 38 -20 80 -47 94 -60 20 -18 34 -22
71 -20 45 3 47 4 58 44 7 23 9 46 5 51 -3 6 -97 31 -209 55 -181 40 -204 43
-212 29z"/>
<path d="M298 563 c-4 -90 1 -133 15 -133 18 0 167 89 167 100 0 11 -148 100
-166 100 -8 0 -14 -24 -16 -67z"/>
<path d="M123 501 c-39 -25 -53 -44 -60 -84 -7 -48 20 -101 62 -121 22 -11 61
-16 117 -16 45 0 89 -4 97 -9 21 -13 5 -41 -23 -41 -32 0 -131 -89 -101 -91
70 -4 152 3 172 16 74 49 73 152 -2 201 -18 12 -51 17 -119 18 -97 1 -122 10
-106 35 6 10 27 14 68 14 l61 -1 -5 41 c-3 23 -8 44 -10 47 -14 14 -124 7
-151 -9z"/>
<path d="M428 476 c-36 -23 -69 -44 -72 -47 -4 -3 53 -6 126 -5 l133 0 0 -24
c0 -25 -1 -25 -87 -25 -83 0 -102 -5 -77 -21 6 -3 17 -21 25 -40 13 -32 16
-33 76 -36 55 -3 63 -5 63 -23 0 -18 -8 -20 -67 -23 -62 -3 -68 -5 -74 -27 -3
-13 -14 -31 -25 -41 -10 -9 -19 -20 -19 -23 0 -3 47 -5 105 -4 88 2 111 6 134
22 42 30 56 71 42 125 -8 32 -8 53 0 72 15 42 2 97 -31 129 -26 24 -37 28
-107 30 -76 2 -80 1 -145 -39z"/>
<path d="M700 515 c0 -2 12 -21 26 -42 23 -35 29 -38 76 -40 66 -2 89 -24 96
-91 8 -85 -32 -133 -106 -128 -38 3 -39 2 -75 -46 l-28 -38 91 0 c65 0 102 5
127 17 124 58 122 292 -3 356 -26 13 -204 24 -204 12z"/>
<path d="M45 185 c-25 -25 -45 -47 -45 -48 0 -1 34 -1 77 1 72 2 78 4 119 40
23 20 43 40 43 45 1 4 -33 7 -74 7 l-74 0 -46 -45z"/>
</g>
</svg>
